<svg width="375" height="305" viewBox="0 0 375 305" fill="none" xmlns="http://www.w3.org/2000/svg">
<path d="M20 1V186.261" stroke="#FEDC00" stroke-opacity="0.05" stroke-width="1.6791" stroke-linecap="round"/>
<path d="M87.1642 1V119.097" stroke="#FEDC00" stroke-opacity="0.05" stroke-width="1.6791" stroke-linecap="round"/>
<path d="M154.328 1V167.231" stroke="#FEDC00" stroke-opacity="0.05" stroke-width="1.6791" stroke-linecap="round"/>
<path d="M221.493 1V65.3657" stroke="#FEDC00" stroke-opacity="0.05" stroke-width="1.6791" stroke-linecap="round"/>
<path d="M288.657 1V125.813" stroke="#FEDC00" stroke-opacity="0.05" stroke-width="1.6791" stroke-linecap="round"/>
<path d="M355.821 1V65.3657" stroke="#FEDC00" stroke-opacity="0.05" stroke-width="1.6791" stroke-linecap="round"/>
<path d="M50.0433 156.577C26.7468 201.103 9.31542 186.063 0 178.411V229.358H375V35.6496C354.203 19.9738 343.804 19.9737 326.906 77.6383C313.388 123.77 302.466 128.025 286.612 128.025C251.516 128.025 255.416 85.1689 235.919 75.9584C187.825 54.6847 193.286 141.462 170.277 159.376C136.482 185.69 123.133 150.331 107.886 131.944C81.8891 100.592 70.8406 116.828 50.0433 156.577Z" fill="url(#paint0_linear_7_5709)"/>
<path d="M2.2124 178.425C11.4179 186.074 28.6436 201.11 51.6652 156.597C72.2171 116.858 83.1352 100.627 108.825 131.97C123.892 150.352 134.089 183.463 170.481 159.395C199.254 140.366 187.821 54.7314 235.347 75.9994C254.615 85.2074 250.761 128.052 285.442 128.052C301.109 128.052 311.903 123.798 325.262 77.6789C341.96 20.0296 352.236 20.0298 372.788 35.7013" stroke="url(#paint1_linear_7_5709)" stroke-opacity="0.5" stroke-width="5.59701" stroke-linecap="round"/>
<circle cx="219.403" cy="72.6418" r="12.3134" fill="white"/>
<circle cx="219.403" cy="72.6418" r="6.71642" fill="#FEDC00"/>
<path d="M25.41 244.198C25.57 244.198 25.706 244.258 25.818 244.378C25.938 244.49 25.998 244.626 25.998 244.786C25.998 244.954 25.938 245.098 25.818 245.218C25.706 245.33 25.57 245.386 25.41 245.386C25.25 245.386 25.11 245.33 24.99 245.218C24.878 245.098 24.822 244.954 24.822 244.786C24.822 244.626 24.878 244.49 24.99 244.378C25.11 244.258 25.25 244.198 25.41 244.198ZM26.862 244.198C27.03 244.198 27.17 244.258 27.282 244.378C27.402 244.49 27.462 244.626 27.462 244.786C27.462 244.954 27.402 245.098 27.282 245.218C27.17 245.33 27.03 245.386 26.862 245.386C26.702 245.386 26.562 245.33 26.442 245.218C26.33 245.098 26.274 244.954 26.274 244.786C26.274 244.626 26.33 244.49 26.442 244.378C26.562 244.258 26.702 244.198 26.862 244.198ZM27.462 246.514V251.05C27.462 251.194 27.502 251.306 27.582 251.386C27.654 251.466 27.734 251.506 27.822 251.506H28.062V252.358H27.558C27.19 252.358 26.898 252.218 26.682 251.938C26.162 252.306 25.602 252.49 25.002 252.49C24.162 252.49 23.498 252.162 23.01 251.506C22.61 250.97 22.41 250.33 22.41 249.586C22.41 248.714 22.698 247.99 23.274 247.414C23.786 246.894 24.414 246.634 25.158 246.634C25.582 246.634 26.01 246.73 26.442 246.922L26.958 246.514H27.462ZM26.442 247.762C26.09 247.586 25.734 247.498 25.374 247.498C24.766 247.498 24.274 247.738 23.898 248.218C23.586 248.61 23.43 249.074 23.43 249.61C23.43 250.25 23.582 250.754 23.886 251.122C24.182 251.458 24.582 251.626 25.086 251.626C25.518 251.626 25.97 251.51 26.442 251.278V247.762ZM29.6513 248.794C29.9313 248.09 30.3993 247.542 31.0553 247.15C31.5833 246.846 32.1313 246.694 32.6993 246.694C33.2673 246.694 33.8113 246.846 34.3313 247.15C34.9953 247.542 35.4633 248.09 35.7353 248.794L35.6273 249.082C35.0753 249.314 34.6233 249.63 34.2713 250.03C33.9113 250.446 33.6833 250.938 33.5873 251.506H35.8553V252.358H33.4193C33.1793 252.358 32.9473 252.242 32.7233 252.01H32.6873C32.4713 252.242 32.2393 252.358 31.9913 252.358H27.9832V251.506H31.8113C31.7233 251.018 31.5233 250.558 31.2113 250.126C30.8513 249.678 30.3713 249.33 29.7713 249.082L29.6513 248.794ZM34.6313 248.674C34.3673 248.29 34.0673 248.002 33.7313 247.81C33.4113 247.642 33.0673 247.558 32.6993 247.558C32.3313 247.558 31.9993 247.634 31.7033 247.786C31.3513 247.962 31.0393 248.258 30.7673 248.674C31.1833 248.858 31.5393 249.118 31.8353 249.454C32.2033 249.87 32.4833 250.39 32.6753 251.014H32.7113C32.9113 250.366 33.1993 249.834 33.5753 249.418C33.8793 249.098 34.2313 248.85 34.6313 248.674ZM38.1402 251.506C37.8122 250.97 37.6482 250.358 37.6482 249.67C37.6482 248.702 37.9202 247.954 38.4642 247.426C38.9522 246.962 39.5962 246.722 40.3962 246.706C40.9722 246.706 41.4482 246.83 41.8242 247.078C42.4002 247.462 42.6882 248.062 42.6882 248.878V251.05C42.6882 251.162 42.7162 251.258 42.7722 251.338C42.8442 251.442 42.9402 251.498 43.0602 251.506H43.0842V252.358H42.7842C42.4242 252.358 42.1362 252.218 41.9202 251.938C41.4882 252.458 40.9402 252.718 40.2762 252.718C39.5802 252.718 38.9762 252.458 38.4642 251.938H38.4402L38.1042 252.358H35.7762V251.506H38.1402ZM41.6682 248.878C41.6682 248.462 41.5362 248.13 41.2722 247.882C41.0402 247.666 40.7402 247.558 40.3722 247.558C39.8602 247.558 39.4482 247.75 39.1362 248.134C38.8242 248.51 38.6682 249.006 38.6682 249.622C38.6682 250.27 38.8322 250.81 39.1602 251.242C39.4722 251.658 39.8642 251.866 40.3362 251.866C40.8002 251.866 41.2442 251.654 41.6682 251.23V248.878ZM44.5793 247.042C45.3153 246.81 46.0033 246.694 46.6433 246.694C47.6353 246.694 48.3913 247.002 48.9113 247.618C49.3593 248.146 49.5833 248.838 49.5833 249.694V251.218C49.5833 251.49 49.4993 251.73 49.3313 251.938C49.1233 252.218 48.8473 252.358 48.5033 252.358H42.9832V251.506H48.1073C48.4113 251.506 48.5633 251.354 48.5633 251.05V249.658C48.5633 249.034 48.3993 248.542 48.0713 248.182C47.7113 247.782 47.1873 247.582 46.4993 247.582C46.0833 247.582 45.4433 247.67 44.5793 247.846V247.042ZM46.0073 253.606C46.1753 253.606 46.3153 253.662 46.4273 253.774C46.5473 253.894 46.6073 254.034 46.6073 254.194C46.6073 254.362 46.5473 254.502 46.4273 254.614C46.3153 254.734 46.1753 254.794 46.0073 254.794C45.8473 254.794 45.7073 254.734 45.5873 254.614C45.4753 254.502 45.4193 254.362 45.4193 254.194C45.4193 254.034 45.4753 253.894 45.5873 253.774C45.7073 253.662 45.8473 253.606 46.0073 253.606Z" fill="#B1BCCD"/>
<path d="M90.5043 246.838V251.218C90.5043 251.322 90.4923 251.418 90.4683 251.506H91.1043V252.358H90.6363L90.2883 251.938H90.2643C90.0403 252.218 89.7603 252.358 89.4243 252.358H87.0603L86.7123 251.938H86.6883C86.4643 252.218 86.1843 252.358 85.8483 252.358H83.3523C83.3283 253.366 82.9723 254.122 82.2843 254.626C81.7323 255.026 81.0283 255.226 80.1723 255.226H78.8403C77.9363 255.226 77.2043 255.006 76.6443 254.566C75.9803 254.046 75.6483 253.274 75.6483 252.25V249.742L76.1643 249.322H76.6683V252.226C76.6683 253.026 76.8763 253.582 77.2923 253.894C77.7163 254.214 78.4523 254.374 79.5003 254.374C80.5003 254.374 81.2003 254.238 81.6003 253.966C82.0883 253.638 82.3323 253.058 82.3323 252.226V248.218H83.3523V251.506H85.4523C85.7563 251.506 85.9083 251.354 85.9083 251.05V247.522H86.9283V251.218C86.9283 251.322 86.9163 251.418 86.8923 251.506H89.0283C89.3323 251.506 89.4843 251.354 89.4843 251.05V246.838H90.5043ZM94.1945 246.838V251.218C94.1945 251.314 94.1825 251.41 94.1585 251.506H94.7945V252.358H94.3265L93.9785 251.938H93.9425C93.7265 252.218 93.4465 252.358 93.1025 252.358H91.0145V251.506H92.7185C92.8465 251.506 92.9505 251.466 93.0305 251.386C93.1265 251.298 93.1745 251.186 93.1745 251.05V246.838H94.1945ZM92.1425 253.606C92.3025 253.606 92.4385 253.662 92.5505 253.774C92.6705 253.894 92.7305 254.034 92.7305 254.194C92.7305 254.362 92.6705 254.502 92.5505 254.614C92.4385 254.734 92.3025 254.794 92.1425 254.794C91.9825 254.794 91.8425 254.734 91.7225 254.614C91.6105 254.502 91.5545 254.362 91.5545 254.194C91.5545 254.034 91.6105 253.894 91.7225 253.774C91.8425 253.662 91.9825 253.606 92.1425 253.606ZM93.5945 253.606C93.7625 253.606 93.9025 253.662 94.0145 253.774C94.1345 253.894 94.1945 254.034 94.1945 254.194C94.1945 254.362 94.1345 254.502 94.0145 254.614C93.9025 254.734 93.7625 254.794 93.5945 254.794C93.4345 254.794 93.2945 254.734 93.1745 254.614C93.0625 254.502 93.0065 254.362 93.0065 254.194C93.0065 254.034 93.0625 253.894 93.1745 253.774C93.2945 253.662 93.4345 253.606 93.5945 253.606ZM97.0699 251.506C96.7419 250.97 96.5779 250.358 96.5779 249.67C96.5779 248.702 96.8499 247.954 97.3939 247.426C97.8819 246.962 98.5259 246.722 99.3259 246.706C99.9019 246.706 100.378 246.83 100.754 247.078C101.33 247.462 101.618 248.062 101.618 248.878V251.05C101.618 251.162 101.646 251.258 101.702 251.338C101.774 251.442 101.87 251.498 101.99 251.506H102.014V252.358H101.714C101.354 252.358 101.066 252.218 100.85 251.938C100.418 252.458 99.8699 252.718 99.2059 252.718C98.5099 252.718 97.9059 252.458 97.3939 251.938H97.3699L97.0339 252.358H94.7059V251.506H97.0699ZM100.598 248.878C100.598 248.462 100.466 248.13 100.202 247.882C99.9699 247.666 99.6699 247.558 99.3019 247.558C98.7899 247.558 98.3779 247.75 98.0659 248.134C97.7539 248.51 97.5979 249.006 97.5979 249.622C97.5979 250.27 97.7619 250.81 98.0899 251.242C98.4019 251.658 98.7939 251.866 99.2659 251.866C99.7299 251.866 100.174 251.654 100.598 251.23V248.878ZM105.705 244.198C105.873 244.198 106.013 244.258 106.125 244.378C106.237 244.49 106.293 244.626 106.293 244.786C106.293 244.954 106.237 245.098 106.125 245.218C106.013 245.33 105.873 245.386 105.705 245.386C105.545 245.386 105.405 245.33 105.285 245.218C105.173 245.098 105.117 244.954 105.117 244.786C105.117 244.626 105.173 244.49 105.285 244.378C105.405 244.258 105.545 244.198 105.705 244.198ZM103.509 247.042C104.245 246.81 104.933 246.694 105.573 246.694C106.565 246.694 107.321 247.002 107.841 247.618C108.289 248.146 108.513 248.838 108.513 249.694V251.218C108.513 251.49 108.429 251.73 108.261 251.938C108.053 252.218 107.777 252.358 107.433 252.358H101.913V251.506H107.037C107.341 251.506 107.493 251.354 107.493 251.05V249.658C107.493 249.034 107.329 248.542 107.001 248.182C106.641 247.782 106.117 247.582 105.429 247.582C105.013 247.582 104.373 247.67 103.509 247.846V247.042Z" fill="#B1BCCD"/>
<path d="M135.58 251.986C135.364 251.834 135.18 251.654 135.028 251.446C134.676 250.95 134.5 250.322 134.5 249.562C134.5 248.682 134.756 247.998 135.268 247.51C135.724 247.078 136.336 246.862 137.104 246.862C137.424 246.862 137.764 246.902 138.124 246.982V247.822C137.78 247.742 137.476 247.702 137.212 247.702C136.092 247.702 135.532 248.342 135.532 249.622C135.532 250.182 135.672 250.618 135.952 250.93C136.24 251.242 136.64 251.398 137.152 251.398C137.208 251.398 137.268 251.398 137.332 251.398C138.148 251.286 138.792 251.23 139.264 251.23C139.296 251.23 139.336 251.23 139.384 251.23V251.59L138.964 252.106C138.284 252.106 137.572 252.218 136.828 252.442C136.06 252.674 135.38 252.99 134.788 253.39L134.344 252.682C134.616 252.482 135.028 252.25 135.58 251.986ZM141.485 243.766V251.05C141.485 251.178 141.525 251.286 141.605 251.374C141.693 251.462 141.805 251.506 141.941 251.506H142.097V252.358H141.545C141.289 252.358 141.065 252.274 140.873 252.106C140.601 251.874 140.465 251.578 140.465 251.218V243.766H141.485ZM143.683 248.794C143.963 248.09 144.431 247.542 145.087 247.15C145.615 246.846 146.163 246.694 146.731 246.694C147.299 246.694 147.843 246.846 148.363 247.15C149.027 247.542 149.495 248.09 149.767 248.794L149.659 249.082C149.107 249.314 148.655 249.63 148.303 250.03C147.943 250.446 147.715 250.938 147.619 251.506H149.887V252.358H147.451C147.211 252.358 146.979 252.242 146.755 252.01H146.719C146.503 252.242 146.271 252.358 146.023 252.358H142.014V251.506H145.843C145.755 251.018 145.555 250.558 145.243 250.126C144.883 249.678 144.403 249.33 143.803 249.082L143.683 248.794ZM148.663 248.674C148.399 248.29 148.099 248.002 147.763 247.81C147.443 247.642 147.099 247.558 146.731 247.558C146.363 247.558 146.031 247.634 145.735 247.786C145.383 247.962 145.071 248.258 144.799 248.674C145.215 248.858 145.571 249.118 145.867 249.454C146.235 249.87 146.515 250.39 146.707 251.014H146.743C146.943 250.366 147.231 249.834 147.607 249.418C147.911 249.098 148.263 248.85 148.663 248.674ZM152.987 246.838V251.218C152.987 251.514 152.891 251.77 152.699 251.986C152.483 252.234 152.215 252.358 151.895 252.358H149.807V251.506H151.511C151.647 251.506 151.759 251.458 151.847 251.362C151.927 251.282 151.967 251.178 151.967 251.05V246.838H152.987ZM152.171 253.606C152.331 253.606 152.467 253.662 152.579 253.774C152.699 253.894 152.759 254.034 152.759 254.194C152.759 254.362 152.699 254.502 152.579 254.614C152.467 254.734 152.331 254.794 152.171 254.794C152.011 254.794 151.871 254.734 151.751 254.614C151.639 254.502 151.583 254.362 151.583 254.194C151.583 254.034 151.639 253.894 151.751 253.774C151.871 253.662 152.011 253.606 152.171 253.606ZM157.8 246.838V252.25C157.8 253.138 157.548 253.838 157.044 254.35C156.652 254.75 156.124 255.014 155.46 255.142C155.204 255.19 154.924 255.214 154.62 255.214C154.428 255.214 154.244 255.21 154.068 255.202L153.672 254.71V254.326C153.904 254.358 154.156 254.374 154.428 254.374C155.996 254.374 156.78 253.654 156.78 252.214V246.838H157.8ZM159.257 242.374C159.089 242.158 159.005 241.894 159.005 241.582C159.005 241.27 159.097 241.022 159.281 240.838C159.465 240.646 159.709 240.55 160.013 240.55C160.205 240.55 160.397 240.582 160.589 240.646V241.138C160.445 241.098 160.305 241.078 160.169 241.078C159.753 241.078 159.545 241.29 159.545 241.714C159.545 241.866 159.597 242.006 159.701 242.134C159.829 242.294 160.001 242.374 160.217 242.374H160.985V242.578L160.745 242.866H158.729V242.374H159.257ZM160.493 243.766V252.238L159.977 252.658H159.473V243.766H160.493Z" fill="#B1BCCD"/>
<path d="M187.779 251.986C187.563 251.834 187.379 251.654 187.227 251.446C186.875 250.95 186.699 250.322 186.699 249.562C186.699 248.682 186.955 247.998 187.467 247.51C187.923 247.078 188.535 246.862 189.303 246.862C189.623 246.862 189.963 246.902 190.323 246.982V247.822C189.979 247.742 189.675 247.702 189.411 247.702C188.291 247.702 187.731 248.342 187.731 249.622C187.731 250.182 187.871 250.618 188.151 250.93C188.439 251.242 188.839 251.398 189.351 251.398C189.407 251.398 189.467 251.398 189.531 251.398C190.347 251.286 190.991 251.23 191.463 251.23C191.495 251.23 191.535 251.23 191.583 251.23V251.59L191.163 252.106C190.483 252.106 189.771 252.218 189.027 252.442C188.259 252.674 187.579 252.99 186.987 253.39L186.543 252.682C186.815 252.482 187.227 252.25 187.779 251.986ZM193.684 243.766V251.05C193.684 251.178 193.724 251.286 193.804 251.374C193.892 251.462 194.004 251.506 194.14 251.506H194.296V252.358H193.744C193.488 252.358 193.264 252.274 193.072 252.106C192.8 251.874 192.664 251.578 192.664 251.218V243.766H193.684ZM196.182 243.046C196.334 243.046 196.466 243.102 196.578 243.214C196.69 243.318 196.746 243.45 196.746 243.61C196.746 243.762 196.69 243.894 196.578 244.006C196.466 244.118 196.334 244.174 196.182 244.174C196.03 244.174 195.898 244.118 195.786 244.006C195.674 243.894 195.618 243.762 195.618 243.61C195.618 243.45 195.67 243.318 195.774 243.214C195.886 243.102 196.022 243.046 196.182 243.046ZM195.45 244.198C195.618 244.198 195.758 244.258 195.87 244.378C195.982 244.49 196.038 244.626 196.038 244.786C196.038 244.954 195.982 245.098 195.87 245.218C195.758 245.33 195.618 245.386 195.45 245.386C195.29 245.386 195.15 245.33 195.03 245.218C194.918 245.098 194.862 244.954 194.862 244.786C194.862 244.626 194.918 244.49 195.03 244.378C195.15 244.258 195.29 244.198 195.45 244.198ZM196.914 244.198C197.074 244.198 197.21 244.258 197.322 244.378C197.442 244.49 197.502 244.626 197.502 244.786C197.502 244.954 197.442 245.098 197.322 245.218C197.21 245.33 197.074 245.386 196.914 245.386C196.746 245.386 196.602 245.33 196.482 245.218C196.37 245.098 196.314 244.954 196.314 244.786C196.314 244.626 196.37 244.49 196.482 244.378C196.602 244.258 196.746 244.198 196.914 244.198ZM197.394 246.838V251.218C197.394 251.514 197.298 251.77 197.106 251.986C196.89 252.234 196.622 252.358 196.302 252.358H194.214V251.506H195.918C196.054 251.506 196.166 251.458 196.254 251.362C196.334 251.282 196.374 251.178 196.374 251.05V246.838H197.394ZM205.504 243.766V251.218C205.504 251.33 205.488 251.426 205.456 251.506H206.104V252.358H205.636L205.288 251.938H205.252C205.14 252.074 205.012 252.178 204.868 252.25C204.724 252.322 204.572 252.358 204.412 252.358H199.168L198.748 251.842V251.506H201.964L199.9 245.242H200.92L202.996 251.506H204.028C204.164 251.506 204.276 251.458 204.364 251.362C204.436 251.282 204.472 251.178 204.472 251.05V243.766H205.504ZM207.971 243.046C208.123 243.046 208.255 243.102 208.367 243.214C208.479 243.318 208.535 243.45 208.535 243.61C208.535 243.762 208.479 243.894 208.367 244.006C208.255 244.118 208.123 244.174 207.971 244.174C207.819 244.174 207.687 244.118 207.575 244.006C207.463 243.894 207.407 243.762 207.407 243.61C207.407 243.45 207.459 243.318 207.563 243.214C207.675 243.102 207.811 243.046 207.971 243.046ZM207.239 244.198C207.407 244.198 207.547 244.258 207.659 244.378C207.771 244.49 207.827 244.626 207.827 244.786C207.827 244.954 207.771 245.098 207.659 245.218C207.547 245.33 207.407 245.386 207.239 245.386C207.079 245.386 206.939 245.33 206.819 245.218C206.707 245.098 206.651 244.954 206.651 244.786C206.651 244.626 206.707 244.49 206.819 244.378C206.939 244.258 207.079 244.198 207.239 244.198ZM208.703 244.198C208.863 244.198 208.999 244.258 209.111 244.378C209.231 244.49 209.291 244.626 209.291 244.786C209.291 244.954 209.231 245.098 209.111 245.218C208.999 245.33 208.863 245.386 208.703 245.386C208.535 245.386 208.391 245.33 208.271 245.218C208.159 245.098 208.103 244.954 208.103 244.786C208.103 244.626 208.159 244.49 208.271 244.378C208.391 244.258 208.535 244.198 208.703 244.198ZM209.183 246.838V251.218C209.183 251.514 209.087 251.77 208.895 251.986C208.679 252.234 208.411 252.358 208.091 252.358H206.003V251.506H207.707C207.843 251.506 207.955 251.458 208.043 251.362C208.123 251.282 208.163 251.178 208.163 251.05V246.838H209.183Z" fill="#B1BCCD"/>
<path d="M240.209 247.75C240.461 247.75 240.675 247.839 240.853 248.016C241.03 248.194 241.119 248.408 241.119 248.66C241.119 248.912 241.03 249.127 240.853 249.304C240.675 249.482 240.461 249.57 240.209 249.57C239.966 249.57 239.756 249.482 239.579 249.304C239.401 249.127 239.313 248.912 239.313 248.66C239.313 248.408 239.401 248.194 239.579 248.016C239.756 247.839 239.966 247.75 240.209 247.75ZM244.969 247.918V252.93H245.669V254.358H244.955C244.88 255.46 244.465 256.3 243.709 256.878C242.999 257.429 242.094 257.704 240.993 257.704H239.607C238.412 257.704 237.46 257.396 236.751 256.78C236.004 256.127 235.631 255.208 235.631 254.022V251.516L236.499 250.816H237.339V253.868C237.339 254.755 237.558 255.376 237.997 255.73C238.445 256.094 239.215 256.276 240.307 256.276C241.361 256.276 242.103 256.113 242.533 255.786C243.018 255.413 243.261 254.774 243.261 253.868V247.918H244.969ZM249.858 247.918V252.72V252.93H250.572V254.358H250.082L249.564 253.784H249.536C249.218 254.167 248.822 254.358 248.346 254.358H245.644V252.93H247.758C247.888 252.93 247.982 252.893 248.038 252.818C248.122 252.744 248.164 252.65 248.164 252.538V247.918H249.858ZM246.82 255.38C247.072 255.38 247.286 255.469 247.464 255.646C247.641 255.824 247.73 256.038 247.73 256.29C247.73 256.542 247.641 256.757 247.464 256.934C247.286 257.112 247.072 257.2 246.82 257.2C246.568 257.2 246.353 257.112 246.176 256.934C245.998 256.757 245.91 256.542 245.91 256.29C245.91 256.038 245.998 255.824 246.176 255.646C246.353 255.469 246.568 255.38 246.82 255.38ZM248.948 255.38C249.2 255.38 249.414 255.469 249.592 255.646C249.769 255.824 249.858 256.038 249.858 256.29C249.858 256.542 249.769 256.757 249.592 256.934C249.414 257.112 249.2 257.2 248.948 257.2C248.705 257.2 248.495 257.112 248.318 256.934C248.14 256.757 248.052 256.542 248.052 256.29C248.052 256.038 248.14 255.824 248.318 255.646C248.495 255.469 248.705 255.38 248.948 255.38ZM253.83 244.838C254.082 244.838 254.296 244.927 254.474 245.104C254.651 245.282 254.74 245.496 254.74 245.748C254.74 245.991 254.651 246.201 254.474 246.378C254.296 246.556 254.082 246.644 253.83 246.644C253.587 246.644 253.377 246.556 253.2 246.378C253.022 246.201 252.934 245.991 252.934 245.748C252.934 245.496 253.022 245.282 253.2 245.104C253.377 244.927 253.587 244.838 253.83 244.838ZM254.684 247.918V252.72V252.93H255.398V254.358H254.908L254.39 253.784H254.362C254.044 254.167 253.648 254.358 253.172 254.358H250.47V252.93H252.584C252.714 252.93 252.808 252.893 252.864 252.818C252.948 252.744 252.99 252.65 252.99 252.538V247.918H254.684ZM257.718 243.158C257.942 243.158 258.133 243.242 258.292 243.41C258.46 243.569 258.544 243.76 258.544 243.984C258.544 244.218 258.465 244.418 258.306 244.586C258.147 244.745 257.951 244.824 257.718 244.824C257.475 244.824 257.275 244.745 257.116 244.586C256.957 244.428 256.878 244.227 256.878 243.984C256.878 243.751 256.957 243.555 257.116 243.396C257.284 243.238 257.485 243.158 257.718 243.158ZM256.654 244.838C256.897 244.838 257.107 244.927 257.284 245.104C257.461 245.282 257.55 245.496 257.55 245.748C257.55 245.991 257.461 246.201 257.284 246.378C257.107 246.556 256.897 246.644 256.654 246.644C256.402 246.644 256.187 246.556 256.01 246.378C255.833 246.201 255.744 245.991 255.744 245.748C255.744 245.496 255.833 245.282 256.01 245.104C256.187 244.927 256.402 244.838 256.654 244.838ZM258.768 244.838C259.02 244.838 259.235 244.927 259.412 245.104C259.589 245.282 259.678 245.496 259.678 245.748C259.678 245.991 259.589 246.201 259.412 246.378C259.235 246.556 259.02 246.644 258.768 246.644C258.525 246.644 258.315 246.556 258.138 246.378C257.961 246.201 257.872 245.991 257.872 245.748C257.872 245.496 257.961 245.282 258.138 245.104C258.315 244.927 258.525 244.838 258.768 244.838ZM259.496 247.918V252.818C259.496 253.182 259.375 253.518 259.132 253.826C258.824 254.181 258.441 254.358 257.984 254.358H255.282V252.93H257.438C257.541 252.93 257.629 252.893 257.704 252.818C257.769 252.753 257.802 252.674 257.802 252.58V247.918H259.496ZM263.317 244.334V254.008L262.449 254.708H261.609V244.334H263.317Z" fill="#FEDC00"/>
<path d="M290.2 246.766C290.488 246.718 290.796 246.694 291.124 246.694C292.012 246.694 292.728 246.962 293.272 247.498C293.76 247.994 294.004 248.622 294.004 249.382V251.218C294.004 251.322 293.996 251.418 293.98 251.506H294.316V252.358H294.136L293.8 251.938H293.764C293.7 252.018 293.628 252.09 293.548 252.154C293.356 252.29 293.148 252.358 292.924 252.358H288.988V251.506H292.54C292.836 251.506 292.984 251.354 292.984 251.05V249.526C292.984 248.958 292.812 248.486 292.468 248.11C292.1 247.726 291.532 247.53 290.764 247.522C290.54 247.522 290.352 247.538 290.2 247.57V246.766ZM295.81 247.042C296.546 246.81 297.234 246.694 297.874 246.694C298.866 246.694 299.622 247.002 300.142 247.618C300.59 248.146 300.814 248.838 300.814 249.694V251.218C300.814 251.49 300.73 251.73 300.562 251.938C300.354 252.218 300.078 252.358 299.734 252.358H294.214V251.506H299.338C299.642 251.506 299.794 251.354 299.794 251.05V249.658C299.794 249.034 299.63 248.542 299.302 248.182C298.942 247.782 298.418 247.582 297.73 247.582C297.314 247.582 296.674 247.67 295.81 247.846V247.042Z" fill="#B1BCCD"/>
<path d="M330.981 246.514C331.141 246.514 331.277 246.574 331.389 246.694C331.509 246.806 331.569 246.946 331.569 247.114C331.569 247.274 331.509 247.414 331.389 247.534C331.277 247.646 331.141 247.702 330.981 247.702C330.813 247.702 330.673 247.646 330.561 247.534C330.449 247.414 330.393 247.274 330.393 247.114C330.393 246.946 330.449 246.806 330.561 246.694C330.673 246.574 330.813 246.514 330.981 246.514ZM332.433 246.514C332.601 246.514 332.741 246.574 332.853 246.694C332.973 246.806 333.033 246.946 333.033 247.114C333.033 247.274 332.973 247.414 332.853 247.534C332.741 247.646 332.601 247.702 332.433 247.702C332.273 247.702 332.133 247.646 332.013 247.534C331.901 247.414 331.845 247.274 331.845 247.114C331.845 246.946 331.901 246.806 332.013 246.694C332.133 246.574 332.273 246.514 332.433 246.514ZM336.609 246.838V251.218C336.609 251.322 336.597 251.418 336.573 251.506H337.221V252.358H336.789L336.393 251.938H336.369C336.145 252.218 335.865 252.358 335.529 252.358H328.665C328.217 252.358 327.821 252.21 327.477 251.914C327.013 251.53 326.781 251.018 326.781 250.378V248.122L327.297 247.702H327.801V250.378C327.801 250.69 327.909 250.954 328.125 251.17C328.357 251.394 328.633 251.506 328.953 251.506H335.133C335.269 251.506 335.385 251.458 335.481 251.362C335.553 251.282 335.589 251.178 335.589 251.05V246.838H336.609ZM340.3 246.838V251.218C340.3 251.314 340.288 251.41 340.264 251.506H340.9V252.358H340.432L340.084 251.938H340.048C339.832 252.218 339.552 252.358 339.208 252.358H337.12V251.506H338.824C338.952 251.506 339.056 251.466 339.136 251.386C339.232 251.298 339.28 251.186 339.28 251.05V246.838H340.3ZM339.7 253.606C339.868 253.606 340.008 253.662 340.12 253.774C340.24 253.894 340.3 254.034 340.3 254.194C340.3 254.362 340.24 254.502 340.12 254.614C340.008 254.734 339.868 254.794 339.7 254.794C339.54 254.794 339.4 254.734 339.28 254.614C339.168 254.502 339.112 254.362 339.112 254.194C339.112 254.034 339.168 253.894 339.28 253.774C339.4 253.662 339.54 253.606 339.7 253.606ZM352.223 246.838V251.218C352.223 251.53 352.115 251.798 351.899 252.022C351.691 252.246 351.439 252.358 351.143 252.358H348.827L348.443 251.938H348.407C348.183 252.218 347.903 252.358 347.567 252.358H345.263L344.867 251.938H344.831C344.607 252.218 344.327 252.358 343.991 252.358H340.811V251.506H343.595C343.899 251.506 344.051 251.354 344.051 251.05V248.218H345.071V251.218C345.071 251.322 345.063 251.418 345.047 251.506H347.171C347.475 251.506 347.627 251.354 347.627 251.05V247.522H348.647V251.218C348.647 251.322 348.635 251.418 348.611 251.506H350.747C351.051 251.506 351.203 251.354 351.203 251.05V246.838H352.223Z" fill="#B1BCCD"/>
<path d="M85.764 284.198C85.98 284.198 86.164 284.274 86.316 284.426C86.468 284.578 86.544 284.762 86.544 284.978C86.544 285.186 86.468 285.366 86.316 285.518C86.164 285.67 85.98 285.746 85.764 285.746C85.548 285.746 85.364 285.67 85.212 285.518C85.06 285.366 84.984 285.186 84.984 284.978C84.984 284.762 85.06 284.578 85.212 284.426C85.364 284.274 85.548 284.198 85.764 284.198ZM87.588 284.198C87.804 284.198 87.988 284.274 88.14 284.426C88.292 284.578 88.368 284.762 88.368 284.978C88.368 285.186 88.292 285.366 88.14 285.518C87.988 285.67 87.804 285.746 87.588 285.746C87.38 285.746 87.2 285.67 87.048 285.518C86.896 285.366 86.82 285.186 86.82 284.978C86.82 284.762 86.896 284.578 87.048 284.426C87.2 284.274 87.38 284.198 87.588 284.198ZM88.368 286.514V290.834C88.368 290.93 88.396 291.002 88.452 291.05C88.5 291.106 88.564 291.134 88.644 291.134H88.98V292.358H88.224C87.856 292.358 87.524 292.21 87.228 291.914C86.772 292.29 86.264 292.478 85.704 292.478C85.072 292.478 84.528 292.278 84.072 291.878C83.464 291.31 83.16 290.55 83.16 289.598C83.16 288.726 83.44 288.002 84 287.426C84.512 286.906 85.14 286.646 85.884 286.646C86.3 286.646 86.716 286.734 87.132 286.91L87.648 286.514H88.368ZM86.904 288.062C86.624 287.958 86.356 287.906 86.1 287.906C85.668 287.906 85.312 288.066 85.032 288.386C84.752 288.698 84.612 289.106 84.612 289.61C84.612 290.114 84.736 290.518 84.984 290.822C85.24 291.126 85.58 291.278 86.004 291.278C86.292 291.278 86.592 291.214 86.904 291.086V288.062ZM91.7776 284.198C91.9936 284.198 92.1776 284.274 92.3296 284.426C92.4816 284.578 92.5576 284.762 92.5576 284.978C92.5576 285.186 92.4816 285.366 92.3296 285.518C92.1776 285.67 91.9936 285.746 91.7776 285.746C91.5696 285.746 91.3896 285.67 91.2376 285.518C91.0856 285.366 91.0096 285.186 91.0096 284.978C91.0096 284.762 91.0856 284.578 91.2376 284.426C91.3896 284.274 91.5696 284.198 91.7776 284.198ZM92.5096 286.838V290.954V291.134H93.1216V292.358H92.7016L92.2576 291.866H92.2336C91.9616 292.194 91.6216 292.358 91.2136 292.358H88.8976V291.134H90.7096C90.8216 291.134 90.9016 291.102 90.9496 291.038C91.0216 290.974 91.0576 290.894 91.0576 290.798V286.838H92.5096ZM105.766 286.838V291.038C105.766 291.398 105.638 291.71 105.382 291.974C105.134 292.23 104.83 292.358 104.47 292.358H101.95L101.506 291.866H101.47C101.206 292.194 100.87 292.358 100.462 292.358H97.9423L97.4863 291.866H97.4503C97.1863 292.194 96.8503 292.358 96.4423 292.358H93.0343V291.134H95.9743C96.1743 291.134 96.2743 291.034 96.2743 290.834V288.218H97.7383V290.618C97.7383 290.85 97.7343 291.022 97.7263 291.134H99.9943C100.194 291.134 100.294 291.034 100.294 290.834V287.522H101.758V290.726C101.758 290.774 101.754 290.846 101.746 290.942C101.746 291.03 101.746 291.094 101.746 291.134H104.002C104.202 291.134 104.302 291.034 104.302 290.834V286.838H105.766Z" fill="white"/>
<path d="M139.688 286.838V291.134H140.3V292.358H139.676C139.612 293.318 139.232 294.054 138.536 294.566C137.96 294.99 137.252 295.202 136.412 295.202C136.268 295.202 136.112 295.198 135.944 295.19L135.356 294.458V293.942C135.612 293.982 135.86 294.002 136.1 294.002C137.516 294.002 138.224 293.314 138.224 291.938V286.838H139.688ZM143.138 286.97C144.002 286.578 144.878 286.382 145.766 286.382C146.91 286.382 147.774 286.726 148.358 287.414C148.862 288.014 149.114 288.822 149.114 289.838V290.798C149.114 290.83 149.11 290.89 149.102 290.978C149.102 291.05 149.102 291.102 149.102 291.134H149.498V292.358H149.258L148.85 291.866H148.826C148.746 291.954 148.646 292.046 148.526 292.142C148.318 292.286 148.082 292.358 147.818 292.358H144.818C144.482 292.358 144.226 292.314 144.05 292.226H144.002C143.826 292.314 143.53 292.358 143.114 292.358H140.21V291.134H142.37C142.242 290.974 142.138 290.766 142.058 290.51C141.986 290.27 141.95 290.014 141.95 289.742C141.95 289.23 142.082 288.79 142.346 288.422C142.554 288.142 142.818 287.934 143.138 287.798V286.97ZM147.65 290.03C147.65 289.142 147.454 288.498 147.062 288.098C146.694 287.73 146.138 287.546 145.394 287.546C145.066 287.546 144.718 287.582 144.35 287.654C144.926 287.726 145.378 287.982 145.706 288.422C145.97 288.79 146.102 289.23 146.102 289.742C146.102 289.998 146.07 290.242 146.006 290.474C145.926 290.746 145.822 290.966 145.694 291.134H147.338C147.442 291.134 147.518 291.102 147.566 291.038C147.622 290.982 147.65 290.914 147.65 290.834V290.03ZM144.014 290.99C144.278 290.966 144.49 290.846 144.65 290.63C144.81 290.406 144.89 290.126 144.89 289.79C144.89 289.406 144.798 289.11 144.614 288.902C144.454 288.718 144.254 288.626 144.014 288.626C143.782 288.626 143.582 288.71 143.414 288.878C143.222 289.094 143.126 289.398 143.126 289.79C143.134 290.134 143.218 290.414 143.378 290.63C143.538 290.846 143.75 290.966 144.014 290.99ZM157.413 282.758C157.613 282.758 157.781 282.83 157.917 282.974C158.061 283.11 158.133 283.278 158.133 283.478C158.133 283.678 158.061 283.846 157.917 283.982C157.781 284.118 157.613 284.186 157.413 284.186C157.213 284.186 157.045 284.118 156.909 283.982C156.773 283.846 156.705 283.678 156.705 283.478C156.705 283.278 156.773 283.11 156.909 282.974C157.045 282.83 157.213 282.758 157.413 282.758ZM156.501 284.198C156.717 284.198 156.901 284.274 157.053 284.426C157.205 284.578 157.281 284.762 157.281 284.978C157.281 285.186 157.205 285.366 157.053 285.518C156.901 285.67 156.717 285.746 156.501 285.746C156.293 285.746 156.113 285.67 155.961 285.518C155.809 285.366 155.733 285.186 155.733 284.978C155.733 284.762 155.809 284.578 155.961 284.426C156.113 284.274 156.293 284.198 156.501 284.198ZM158.325 284.198C158.541 284.198 158.725 284.274 158.877 284.426C159.029 284.578 159.105 284.762 159.105 284.978C159.105 285.186 159.029 285.366 158.877 285.518C158.725 285.67 158.541 285.746 158.325 285.746C158.109 285.746 157.925 285.67 157.773 285.518C157.621 285.366 157.545 285.186 157.545 284.978C157.545 284.762 157.621 284.578 157.773 284.426C157.925 284.274 158.109 284.198 158.325 284.198ZM162.141 286.838V291.038C162.141 291.398 162.013 291.71 161.757 291.974C161.509 292.23 161.205 292.358 160.845 292.358H158.325L157.881 291.866H157.845C157.581 292.194 157.245 292.358 156.837 292.358H154.317L153.861 291.866H153.825C153.561 292.194 153.225 292.358 152.817 292.358H149.409V291.134H152.349C152.549 291.134 152.649 291.034 152.649 290.834V288.218H154.113V290.618C154.113 290.85 154.109 291.022 154.101 291.134H156.369C156.569 291.134 156.669 291.034 156.669 290.834V287.522H158.133V290.726C158.133 290.774 158.129 290.846 158.121 290.942C158.121 291.03 158.121 291.094 158.121 291.134H160.377C160.577 291.134 160.677 291.034 160.677 290.834V286.838H162.141Z" fill="white"/>
<path d="M193.576 291.518C193.272 291.206 193.06 290.894 192.94 290.582C192.78 290.238 192.7 289.842 192.7 289.394C192.7 288.522 193.012 287.834 193.636 287.33C194.156 286.906 194.8 286.694 195.568 286.694C196.056 286.694 196.528 286.762 196.984 286.898V288.05C196.512 287.954 196.124 287.906 195.82 287.906C194.716 287.906 194.164 288.442 194.164 289.514C194.164 289.986 194.3 290.374 194.572 290.678C194.852 290.982 195.208 291.134 195.64 291.134H197.968V291.614L197.38 292.358H195.316C194.596 292.39 194.112 292.618 193.864 293.042C193.712 293.274 193.636 293.566 193.636 293.918C193.636 295.086 194.408 295.67 195.952 295.67C196.4 295.67 196.868 295.602 197.356 295.466V295.97L196.72 296.75C196.456 296.83 196.088 296.878 195.616 296.894C194.704 296.894 193.952 296.686 193.36 296.27C192.568 295.734 192.172 294.934 192.172 293.87C192.172 293.134 192.372 292.546 192.772 292.106C192.996 291.858 193.264 291.662 193.576 291.518ZM201.845 292.358C200.965 292.358 200.273 292.058 199.769 291.458C199.345 290.946 199.133 290.314 199.133 289.562C199.133 288.666 199.385 287.966 199.889 287.462C200.417 286.95 201.093 286.694 201.917 286.694C202.517 286.694 203.037 286.842 203.477 287.138C204.053 287.554 204.341 288.146 204.341 288.914V291.134H204.725V292.358H204.329C204.273 293.222 203.969 293.898 203.417 294.386C203.033 294.73 202.573 294.966 202.037 295.094C201.661 295.182 201.293 295.226 200.933 295.226C200.813 295.226 200.641 295.218 200.417 295.202H200.381L199.769 294.446V293.918C200.097 293.974 200.405 294.002 200.693 294.002C202.005 294.002 202.721 293.454 202.841 292.358H201.845ZM202.877 288.914C202.877 288.594 202.773 288.342 202.565 288.158C202.381 287.998 202.165 287.918 201.917 287.918C201.509 287.918 201.185 288.062 200.945 288.35C200.705 288.638 200.585 289.034 200.585 289.538C200.585 290.026 200.717 290.414 200.981 290.702C201.245 290.99 201.605 291.134 202.061 291.134H202.877V288.914ZM208.248 286.838V290.954V291.134H208.86V292.358H208.44L207.996 291.866H207.972C207.7 292.194 207.36 292.358 206.952 292.358H204.636V291.134H206.448C206.56 291.134 206.64 291.102 206.688 291.038C206.76 290.974 206.796 290.894 206.796 290.798V286.838H208.248ZM207.48 293.234C207.688 293.234 207.868 293.31 208.02 293.462C208.172 293.614 208.248 293.798 208.248 294.014C208.248 294.23 208.172 294.414 208.02 294.566C207.868 294.718 207.688 294.794 207.48 294.794C207.264 294.794 207.08 294.718 206.928 294.566C206.776 294.414 206.7 294.23 206.7 294.014C206.7 293.798 206.776 293.614 206.928 293.462C207.08 293.31 207.264 293.234 207.48 293.234ZM221.505 286.838V291.038C221.505 291.398 221.377 291.71 221.121 291.974C220.873 292.23 220.569 292.358 220.209 292.358H217.689L217.245 291.866H217.209C216.945 292.194 216.609 292.358 216.201 292.358H213.681L213.225 291.866H213.189C212.925 292.194 212.589 292.358 212.181 292.358H208.773V291.134H211.713C211.913 291.134 212.013 291.034 212.013 290.834V288.218H213.477V290.618C213.477 290.85 213.473 291.022 213.465 291.134H215.733C215.933 291.134 216.033 291.034 216.033 290.834V287.522H217.497V290.726C217.497 290.774 217.493 290.846 217.485 290.942C217.485 291.03 217.485 291.094 217.485 291.134H219.741C219.941 291.134 220.041 291.034 220.041 290.834V286.838H221.505ZM224.624 283.766V292.058L223.88 292.658H223.16V283.766H224.624ZM222.944 295.322C222.808 295.122 222.74 294.894 222.74 294.638C222.74 294.294 222.84 294.018 223.04 293.81C223.248 293.602 223.524 293.498 223.868 293.498C224.052 293.498 224.256 293.534 224.48 293.606V294.242C224.32 294.194 224.172 294.17 224.036 294.17C223.684 294.17 223.508 294.362 223.508 294.746C223.508 294.906 223.548 295.034 223.628 295.13C223.724 295.258 223.868 295.322 224.06 295.322H224.864V295.622L224.588 295.97H222.464V295.322H222.944Z" fill="white"/>
<rect x="253.5" y="273.358" width="39" height="31" rx="7" fill="#FEDC00" fill-opacity="0.1"/>
<path d="M265.588 291.134C265.252 290.662 265.084 290.094 265.084 289.43C265.092 288.558 265.388 287.87 265.972 287.366C266.476 286.926 267.108 286.702 267.868 286.694C268.692 286.694 269.324 286.946 269.764 287.45C270.116 287.826 270.292 288.314 270.292 288.914V291.038C270.292 291.446 270.14 291.778 269.836 292.034C269.596 292.25 269.316 292.358 268.996 292.358H265.924C265.724 292.358 265.624 292.458 265.624 292.658V296.246L264.88 296.834H264.16V292.454C264.16 292.094 264.28 291.786 264.52 291.53C264.768 291.266 265.06 291.134 265.396 291.134H265.588ZM268.828 288.914C268.828 288.586 268.72 288.334 268.504 288.158C268.328 287.998 268.112 287.918 267.856 287.918C267.456 287.918 267.136 288.066 266.896 288.362C266.656 288.65 266.536 289.034 266.536 289.514C266.536 290.01 266.66 290.406 266.908 290.702C267.164 290.99 267.512 291.134 267.952 291.134H268.528C268.728 291.134 268.828 291.034 268.828 290.834V288.914ZM274.337 292.358C273.457 292.358 272.765 292.058 272.261 291.458C271.837 290.946 271.625 290.314 271.625 289.562C271.625 288.666 271.877 287.966 272.381 287.462C272.909 286.95 273.585 286.694 274.409 286.694C275.009 286.694 275.529 286.842 275.969 287.138C276.545 287.554 276.833 288.146 276.833 288.914V291.134H277.217V292.358H276.821C276.765 293.222 276.461 293.898 275.909 294.386C275.525 294.73 275.065 294.966 274.529 295.094C274.153 295.182 273.785 295.226 273.425 295.226C273.305 295.226 273.133 295.218 272.909 295.202H272.873L272.261 294.446V293.918C272.589 293.974 272.897 294.002 273.185 294.002C274.497 294.002 275.213 293.454 275.333 292.358H274.337ZM275.369 288.914C275.369 288.594 275.265 288.342 275.057 288.158C274.873 287.998 274.657 287.918 274.409 287.918C274.001 287.918 273.677 288.062 273.437 288.35C273.197 288.638 273.077 289.034 273.077 289.538C273.077 290.026 273.209 290.414 273.473 290.702C273.737 290.99 274.097 291.134 274.553 291.134H275.369V288.914ZM280.74 286.838V291.038C280.74 291.35 280.636 291.638 280.428 291.902C280.164 292.206 279.836 292.358 279.444 292.358H277.128V291.134H278.976C279.064 291.134 279.14 291.102 279.204 291.038C279.26 290.982 279.288 290.914 279.288 290.834V286.838H280.74ZM278.112 293.234C278.328 293.234 278.512 293.31 278.664 293.462C278.816 293.614 278.892 293.798 278.892 294.014C278.892 294.23 278.816 294.414 278.664 294.566C278.512 294.718 278.328 294.794 278.112 294.794C277.904 294.794 277.724 294.718 277.572 294.566C277.42 294.414 277.344 294.23 277.344 294.014C277.344 293.798 277.42 293.614 277.572 293.462C277.724 293.31 277.904 293.234 278.112 293.234ZM279.948 293.234C280.164 293.234 280.344 293.31 280.488 293.462C280.64 293.614 280.716 293.798 280.716 294.014C280.716 294.23 280.64 294.414 280.488 294.566C280.344 294.718 280.164 294.794 279.948 294.794C279.732 294.794 279.548 294.718 279.396 294.566C279.244 294.414 279.168 294.23 279.168 294.014C279.168 293.798 279.244 293.614 279.396 293.462C279.548 293.31 279.732 293.234 279.948 293.234Z" fill="#FEDC00"/>
<defs>
<linearGradient id="paint0_linear_7_5709" x1="187.825" y1="92.7546" x2="187.773" y2="267.988" gradientUnits="userSpaceOnUse">
<stop stop-color="#FEDC00" stop-opacity="0.06"/>
<stop offset="1" stop-color="#FEDC00" stop-opacity="0"/>
</linearGradient>
<linearGradient id="paint1_linear_7_5709" x1="2.2124" y1="26.058" x2="52.9588" y2="256.765" gradientUnits="userSpaceOnUse">
<stop stop-color="#F0E703"/>
<stop offset="1" stop-color="#B3DFA1"/>
</linearGradient>
</defs>
</svg>
