<svg width="24" height="25" viewBox="0 0 24 25" fill="none" xmlns="http://www.w3.org/2000/svg">
<path d="M12.75 16.4199H13.4C14.05 16.4199 14.59 15.8399 14.59 15.1399C14.59 14.2699 14.28 14.0999 13.77 13.9199L12.76 13.5699V16.4199H12.75Z" fill="#FEDC00"/>
<path d="M11.9701 2.40004C6.45007 2.42004 1.98007 6.91004 2.00007 12.43C2.02007 17.95 6.51007 22.42 12.0301 22.4C17.5501 22.38 22.0201 17.89 22.0001 12.37C21.9801 6.85004 17.4901 2.39004 11.9701 2.40004ZM14.2601 12.5C15.0401 12.77 16.0901 13.35 16.0901 15.14C16.0901 16.68 14.8801 17.92 13.4001 17.92H12.7501V18.5C12.7501 18.91 12.4101 19.25 12.0001 19.25C11.5901 19.25 11.2501 18.91 11.2501 18.5V17.92H10.8901C9.25007 17.92 7.92007 16.54 7.92007 14.84C7.92007 14.43 8.26007 14.09 8.67007 14.09C9.08007 14.09 9.42007 14.43 9.42007 14.84C9.42007 15.71 10.0801 16.42 10.8901 16.42H11.2501V13.04L9.74007 12.5C8.96007 12.23 7.91007 11.65 7.91007 9.86004C7.91007 8.32004 9.12007 7.08004 10.6001 7.08004H11.2501V6.50004C11.2501 6.09004 11.5901 5.75004 12.0001 5.75004C12.4101 5.75004 12.7501 6.09004 12.7501 6.50004V7.08004H13.1101C14.7501 7.08004 16.0801 8.46004 16.0801 10.16C16.0801 10.57 15.7401 10.91 15.3301 10.91C14.9201 10.91 14.5801 10.57 14.5801 10.16C14.5801 9.29004 13.9201 8.58004 13.1101 8.58004H12.7501V11.96L14.2601 12.5Z" fill="#FEDC00"/>
<path d="M9.41992 9.86996C9.41992 10.74 9.72992 10.91 10.2399 11.09L11.2499 11.44V8.57996H10.5999C9.94992 8.57996 9.41992 9.15996 9.41992 9.86996Z" fill="#FEDC00"/>
</svg>
