<svg width="26" height="27" viewBox="0 0 26 27" fill="none" xmlns="http://www.w3.org/2000/svg">
<g clip-path="url(#clip0_63_1201)">
<path d="M15.9364 0.5L12.4901 6.50438L8.9375 2.24561L8.73031 8.83549L2.85198 2.71604L5.6875 11.1831L1.52415 7.97805L2.53292 13.7554L0.914062 13.2003V17.2261H1.29563L2.10813 14.7886H4.13938L4.95188 12.3511H6.98313L7.79563 9.91357H9.82688L10.6394 7.47607H15.3606L16.1731 9.91357H18.2044L19.0169 12.3511H21.0481L21.8606 14.7886H23.8919L24.7044 17.2261H25.0859V9.62336L21.136 11.6316L24.375 4.68311L17.9869 8.93644L20.3125 3.87061L16.5077 7.26635L15.9364 0.5ZM11.2981 8.39014L10.7903 9.91357H15.2097L14.7019 8.39014H11.2981ZM8.45437 10.8276L7.94655 12.3511H12.3659L11.8581 10.8276H8.45437ZM12.8216 10.8276L13 11.3629L13.1784 10.8276H12.8216ZM14.1419 10.8276L13.6341 12.3511H18.0534L17.5456 10.8276H14.1419ZM5.61062 13.2651L5.1028 14.7886H9.5222L9.01438 13.2651H5.61062ZM9.9778 13.2651L10.1562 13.8004L10.3347 13.2651H9.9778ZM11.2981 13.2651L10.7903 14.7886H15.2097L14.7019 13.2651H11.2981ZM15.6653 13.2651L15.8438 13.8004L16.0222 13.2651H15.6653ZM16.9856 13.2651L16.4778 14.7886H20.8972L20.3894 13.2651H16.9856ZM2.76687 15.7026L2.25905 17.2261H6.67845L6.17063 15.7026H2.76687ZM7.13405 15.7026L7.3125 16.2379L7.49095 15.7026H7.13405ZM8.45437 15.7026L7.94655 17.2261H12.3659L11.8581 15.7026H8.45437ZM12.8216 15.7026L13 16.2379L13.1784 15.7026H12.8216ZM14.1419 15.7026L13.6341 17.2261H18.0534L17.5456 15.7026H14.1419ZM18.5091 15.7026L18.6875 16.2379L18.8659 15.7026H18.5091ZM19.8294 15.7026L19.3216 17.2261H23.7409L23.2331 15.7026H19.8294ZM0.914062 18.1401V19.6636H3.8347L3.32688 18.1401H0.914062ZM4.2903 18.1401L4.46875 18.6754L4.6472 18.1401H4.2903ZM5.61062 18.1401L5.1028 19.6636H9.5222L9.01438 18.1401H5.61062ZM9.9778 18.1401L10.1562 18.6754L10.3347 18.1401H9.9778ZM11.2981 18.1401L10.7903 19.6636H15.2097L14.7019 18.1401H11.2981ZM15.6653 18.1401L15.8438 18.6754L16.0222 18.1401H15.6653ZM16.9856 18.1401L16.4778 19.6636H20.8972L20.3894 18.1401H16.9856ZM21.3528 18.1401L21.5312 18.6754L21.7097 18.1401H21.3528ZM22.6731 18.1401L22.1653 19.6636H25.0859V18.1401H22.6731ZM1.44655 20.5776L1.625 21.1129L1.80345 20.5776H1.44655ZM2.76687 20.5776L2.25905 22.1011H6.67845L6.17063 20.5776H2.76687ZM7.13405 20.5776L7.3125 21.1129L7.49095 20.5776H7.13405ZM8.45437 20.5776L7.94655 22.1011H12.3659L11.8581 20.5776H8.45437ZM12.8216 20.5776L13 21.1129L13.1784 20.5776H12.8216ZM14.1419 20.5776L13.6341 22.1011H18.0534L17.5456 20.5776H14.1419ZM18.5091 20.5776L18.6789 21.0871L18.6962 21.0866L18.8659 20.5776H18.5091ZM19.8294 20.5776L19.3216 22.1011H23.7409L23.2331 20.5776H19.8294ZM24.1966 20.5776L24.3127 20.9261L24.4385 20.9226L24.5534 20.5776H24.1966Z" fill="white" fill-opacity="0.5"/>
</g>
<defs>
<clipPath id="clip0_63_1201">
<rect width="26" height="26" fill="white" transform="translate(0 0.5)"/>
</clipPath>
</defs>
</svg>
