<svg width="23" height="22" viewBox="0 0 23 22" fill="none" xmlns="http://www.w3.org/2000/svg">
<path d="M11.8392 1.97102L20.0892 5.27099C20.41 5.39933 20.6667 5.78432 20.6667 6.12349V9.16683C20.6667 9.67099 20.2542 10.0835 19.75 10.0835H3.25C2.74584 10.0835 2.33334 9.67099 2.33334 9.16683V6.12349C2.33334 5.78432 2.59001 5.39933 2.91084 5.27099L11.1608 1.97102C11.3442 1.89768 11.6558 1.89768 11.8392 1.97102Z" stroke="#FAFAFA" stroke-width="1.5" stroke-miterlimit="10" stroke-linecap="round" stroke-linejoin="round"/>
<path d="M20.6667 20.1667H2.33334V17.4167C2.33334 16.9125 2.74584 16.5 3.25 16.5H19.75C20.2542 16.5 20.6667 16.9125 20.6667 17.4167V20.1667Z" stroke="#FAFAFA" stroke-width="1.5" stroke-miterlimit="10" stroke-linecap="round" stroke-linejoin="round"/>
<path d="M4.16666 16.5002V10.0835" stroke="#FAFAFA" stroke-width="1.5" stroke-miterlimit="10" stroke-linecap="round" stroke-linejoin="round"/>
<path d="M7.83334 16.5002V10.0835" stroke="#FAFAFA" stroke-width="1.5" stroke-miterlimit="10" stroke-linecap="round" stroke-linejoin="round"/>
<path d="M11.5 16.5002V10.0835" stroke="#FAFAFA" stroke-width="1.5" stroke-miterlimit="10" stroke-linecap="round" stroke-linejoin="round"/>
<path d="M15.1667 16.5002V10.0835" stroke="#FAFAFA" stroke-width="1.5" stroke-miterlimit="10" stroke-linecap="round" stroke-linejoin="round"/>
<path d="M18.8333 16.5002V10.0835" stroke="#FAFAFA" stroke-width="1.5" stroke-miterlimit="10" stroke-linecap="round" stroke-linejoin="round"/>
<path d="M1.41666 20.1665H21.5833" stroke="#FAFAFA" stroke-width="1.5" stroke-miterlimit="10" stroke-linecap="round" stroke-linejoin="round"/>
<path d="M11.5 7.7915C12.2594 7.7915 12.875 7.1759 12.875 6.4165C12.875 5.65711 12.2594 5.0415 11.5 5.0415C10.7406 5.0415 10.125 5.65711 10.125 6.4165C10.125 7.1759 10.7406 7.7915 11.5 7.7915Z" stroke="#FAFAFA" stroke-width="1.5" stroke-miterlimit="10" stroke-linecap="round" stroke-linejoin="round"/>
</svg>
