<svg width="185" height="184" viewBox="0 0 185 184" fill="none" xmlns="http://www.w3.org/2000/svg">
<g filter="url(#filter0_d_67_3279)">
<path d="M92.5 117C119.01 117 140.5 95.5097 140.5 69C140.5 42.4903 119.01 21 92.5 21C65.9903 21 44.5 42.4903 44.5 69C44.5 95.5097 65.9903 117 92.5 117Z" fill="#FF2A2A"/>
</g>
<g filter="url(#filter1_f_67_3279)">
<path d="M92.3837 43C94.4066 43 96.0465 44.6399 96.0465 46.6628V75.9651C96.0465 77.988 94.4066 79.6279 92.3837 79.6279C90.3608 79.6279 88.7209 77.988 88.7209 75.9651V46.6628C88.7209 44.6399 90.3608 43 92.3837 43Z" fill="#FF2A2A"/>
<path d="M92.3837 95.5C95.0809 95.5 97.2674 93.3135 97.2674 90.6163C97.2674 87.9191 95.0809 85.7326 92.3837 85.7326C89.6865 85.7326 87.5 87.9191 87.5 90.6163C87.5 93.3135 89.6865 95.5 92.3837 95.5Z" fill="#FF2A2A"/>
</g>
<path d="M92.3837 43C94.4066 43 96.0465 44.6399 96.0465 46.6628V75.9651C96.0465 77.988 94.4066 79.6279 92.3837 79.6279C90.3608 79.6279 88.7209 77.988 88.7209 75.9651V46.6628C88.7209 44.6399 90.3608 43 92.3837 43Z" fill="white"/>
<path d="M92.3837 95.5C95.0809 95.5 97.2674 93.3135 97.2674 90.6163C97.2674 87.9191 95.0809 85.7326 92.3837 85.7326C89.6865 85.7326 87.5 87.9191 87.5 90.6163C87.5 93.3135 89.6865 95.5 92.3837 95.5Z" fill="white"/>
<defs>
<filter id="filter0_d_67_3279" x="0.5" y="0" width="184" height="184" filterUnits="userSpaceOnUse" color-interpolation-filters="sRGB">
<feFlood flood-opacity="0" result="BackgroundImageFix"/>
<feColorMatrix in="SourceAlpha" type="matrix" values="0 0 0 0 0 0 0 0 0 0 0 0 0 0 0 0 0 0 127 0" result="hardAlpha"/>
<feOffset dy="23"/>
<feGaussianBlur stdDeviation="22"/>
<feColorMatrix type="matrix" values="0 0 0 0 0.690196 0 0 0 0 0.717647 0 0 0 0 0.764706 0 0 0 0.078 0"/>
<feBlend mode="normal" in2="BackgroundImageFix" result="effect1_dropShadow_67_3279"/>
<feBlend mode="normal" in="SourceGraphic" in2="effect1_dropShadow_67_3279" result="shape"/>
</filter>
<filter id="filter1_f_67_3279" x="82.5" y="38" width="19.7675" height="62.5" filterUnits="userSpaceOnUse" color-interpolation-filters="sRGB">
<feFlood flood-opacity="0" result="BackgroundImageFix"/>
<feBlend mode="normal" in="SourceGraphic" in2="BackgroundImageFix" result="shape"/>
<feGaussianBlur stdDeviation="2.5" result="effect1_foregroundBlur_67_3279"/>
</filter>
</defs>
</svg>
