<svg width="23" height="22" viewBox="0 0 23 22" fill="none" xmlns="http://www.w3.org/2000/svg">
<path d="M8.44922 13.1355C8.44922 14.318 9.35672 15.2714 10.4842 15.2714H12.7851C13.7659 15.2714 14.5634 14.4372 14.5634 13.4105C14.5634 12.2922 14.0776 11.898 13.3534 11.6414L9.65922 10.358C8.93505 10.1014 8.44922 9.70719 8.44922 8.58886C8.44922 7.56219 9.24672 6.72803 10.2276 6.72803H12.5284C13.6559 6.72803 14.5634 7.68136 14.5634 8.86386" stroke="#FAFAFA" stroke-width="1.5" stroke-linecap="round" stroke-linejoin="round"/>
<path d="M11.5 5.5V16.5" stroke="#FAFAFA" stroke-width="1.5" stroke-linecap="round" stroke-linejoin="round"/>
<path d="M11.5 20.1668C16.5627 20.1668 20.6667 16.0628 20.6667 11.0002C20.6667 5.93755 16.5627 1.8335 11.5 1.8335C6.43743 1.8335 2.33337 5.93755 2.33337 11.0002C2.33337 16.0628 6.43743 20.1668 11.5 20.1668Z" stroke="#FAFAFA" stroke-width="1.5" stroke-linecap="round" stroke-linejoin="round"/>
</svg>
