<svg width="16" height="12" viewBox="0 0 16 12" fill="none" xmlns="http://www.w3.org/2000/svg">
<g clip-path="url(#clip0_7_5752)">
<path d="M16 10.1538C16 10.6435 15.8127 11.1131 15.4793 11.4593C15.1459 11.8055 14.6937 12 14.2222 12H1.77778C1.30628 12 0.854097 11.8055 0.520699 11.4593C0.187301 11.1131 0 10.6435 0 10.1538V1.84615C0 1.35652 0.187301 0.886947 0.520699 0.540726C0.854097 0.194505 1.30628 0 1.77778 0H14.2222C14.6937 0 15.1459 0.194505 15.4793 0.540726C15.8127 0.886947 16 1.35652 16 1.84615V10.1538Z" fill="#141414"/>
<path d="M0 3.69232H16V8.30771H0V3.69232Z" fill="#EEEEEE"/>
<path d="M14.2222 0H1.77778C1.30628 0 0.854097 0.194505 0.520699 0.540726C0.187301 0.886947 0 1.35652 0 1.84615L0 3.69231H16V1.84615C16 1.35652 15.8127 0.886947 15.4793 0.540726C15.1459 0.194505 14.6937 0 14.2222 0Z" fill="#CE1225"/>
<path d="M6.55554 7.64403C6.55554 7.64403 6.56265 7.75941 6.65954 7.81711C6.65954 7.81711 6.63199 7.90388 6.73599 7.95418C6.83999 8.00449 7.2151 8.08388 7.86799 8.08388C8.52087 8.08388 8.88888 8.01188 8.98621 7.96111C9.08354 7.9108 9.09021 7.79541 9.09021 7.79541C9.09021 7.79541 9.19421 7.73772 9.18754 7.66572C9.18043 7.59372 9.04176 7.51434 9.04176 7.51434C9.04176 7.51434 9.0071 7.42065 8.90976 7.38465C8.81243 7.34865 8.49999 7.54341 7.90265 7.51434C7.30532 7.48572 6.96532 7.39157 6.85421 7.39895C6.7431 7.40634 6.69465 7.52172 6.69465 7.52172C6.69465 7.52172 6.56932 7.57941 6.55554 7.64403Z" fill="#BF9300"/>
<path d="M6.63198 7.63703C6.6262 7.67996 6.71554 7.77411 6.71554 7.77411C6.71554 7.77411 6.71554 7.88211 6.80576 7.91119C6.89598 7.94027 7.26398 8.01226 7.86132 8.00488C8.45865 7.9975 8.8822 7.9615 8.93065 7.91811C8.97909 7.87473 9.02087 7.78103 9.02087 7.78103C9.02087 7.78103 9.1182 7.70903 9.11109 7.65134C9.10398 7.59365 8.96532 7.55765 8.96532 7.55765C8.96532 7.55765 8.9262 7.47088 8.87998 7.43488C8.83376 7.39888 8.53509 7.57888 7.89598 7.57888C7.27065 7.57888 6.90976 7.42011 6.84754 7.4275C6.78487 7.43488 6.74354 7.55719 6.74354 7.55719C6.74354 7.55719 6.63909 7.58673 6.63198 7.63703Z" fill="#EEEEEE"/>
<path d="M9.27056 4.83875C9.27056 4.83875 9.25678 4.49998 8.95811 4.5429C8.65945 4.58629 8.63856 4.73767 8.319 4.77367L8.25322 4.78013C8.19992 4.63008 8.17049 4.47201 8.16611 4.31213C8.16611 4.09567 8.22878 4.00198 8.01322 3.89398C7.79811 3.78598 7.75634 3.88659 7.75634 3.88659C7.75634 3.88659 7.58967 3.79982 7.51322 3.8649C7.43678 3.92998 7.47856 4.09567 7.51322 4.04536C7.54789 3.99505 7.687 4.13905 7.687 4.13905C7.73411 4.37859 7.60034 4.63798 7.50878 4.78244C7.47722 4.77921 7.45189 4.77782 7.41634 4.77367C7.09678 4.73767 7.07589 4.58629 6.77722 4.5429C6.47856 4.49952 6.46478 4.83875 6.46478 4.83875L6.34656 7.45659L6.58967 7.26182L6.591 7.2309L7.09678 6.76429L7.18122 6.67659L6.97189 7.31213C6.97189 7.31213 6.65234 7.29044 6.74256 7.55721C6.74256 7.55721 6.791 7.40582 6.87456 7.43444C6.95811 7.46305 7.20078 7.52813 7.20078 7.52813L7.28434 7.66521L7.38834 7.56413L7.71456 7.54982C7.71456 7.54982 7.81856 7.57844 7.81189 7.67259C7.831 7.6321 7.83678 7.58621 7.82834 7.54198L7.92656 7.53505C7.91601 7.58148 7.92135 7.63027 7.94167 7.67305C7.93456 7.57936 8.039 7.55028 8.039 7.55028L8.36522 7.56459L8.46967 7.66567L8.55322 7.52859C8.55322 7.52859 8.79589 7.46352 8.879 7.4349C8.96211 7.40629 9.011 7.55767 9.011 7.55767C9.10122 7.2909 8.78167 7.31259 8.78167 7.31259L8.58211 6.70659L8.63811 6.76475L9.14389 7.23136L9.14522 7.26229L9.38834 7.45705L9.27056 4.83875ZM7.88967 6.42552C7.38878 6.10429 7.34745 5.29336 7.34745 5.29336C7.34745 5.29336 7.65722 5.27675 7.88211 5.1129C8.08478 5.29982 8.43056 5.27859 8.43056 5.27859C8.43056 5.27859 8.407 6.09275 7.88967 6.42552ZM9.03456 4.73813L8.611 5.15629L8.53989 5.18582C8.467 5.18859 8.11234 5.18952 7.88878 4.98321C7.611 5.18536 7.22922 5.19967 7.22922 5.19967L7.17011 5.17521L6.70122 4.73813L6.57811 4.79075C6.58345 4.73859 6.611 4.62136 6.76389 4.64444C7.01456 4.68182 7.11811 4.8249 7.38211 4.85352L7.45678 4.86136L7.43056 4.89644C7.47145 4.89644 7.53189 4.88398 7.57634 4.87382L7.62656 4.8789L7.60389 4.96105C7.63945 4.94998 7.691 4.91813 7.73322 4.88998L7.84878 4.90152L7.875 4.93936L7.963 4.89367L8.02211 4.88767C8.07322 4.91859 8.14611 4.94629 8.14611 4.94629L8.15989 4.87429C8.22256 4.91767 8.32656 4.91767 8.32656 4.91767C8.31456 4.90752 8.30256 4.88167 8.29011 4.85952L8.35411 4.85259C8.61811 4.82398 8.72122 4.6809 8.97234 4.64352C9.12522 4.6209 9.15278 4.73767 9.15811 4.78982L9.03456 4.73813Z" fill="#BF9300"/>
<path d="M7.72221 6.41124L7.47199 7.39893L7.05554 7.31263L7.48621 6.0434L7.72221 6.41124ZM8.03288 6.41124L8.28265 7.39893L8.69954 7.31263L8.26888 6.0434L8.03288 6.41124Z" fill="#EEEEEE"/>
<path d="M7.45166 5.37275C7.45166 5.37275 7.48633 5.7909 7.66677 6.11536V5.27905C7.66677 5.27905 7.54855 5.35105 7.45166 5.37275ZM8.31966 5.38705C8.31966 5.38705 8.28499 5.80521 8.10455 6.12967V5.29336C8.1041 5.29336 8.22233 5.36536 8.31966 5.38705Z" fill="#BF9300"/>
<path d="M7.53467 3.95911C7.53467 3.95911 7.58311 3.9088 7.72222 4.00942C7.81245 4.07496 7.89245 4.1248 7.89245 4.1248C7.89245 4.1248 7.94933 4.06249 8.03289 4.0768C8.11645 4.09111 8.06978 4.21157 8.08356 4.46357C8.09733 4.71603 8.19467 4.82403 8.19467 4.82403L8.07645 4.75203L8.08356 4.83142L7.95156 4.76634L7.88889 4.86003L7.82622 4.75896L7.72489 4.82311L7.69422 4.73726L7.576 4.80234C7.576 4.80234 7.74978 4.57896 7.76356 4.33342C7.76756 4.26003 7.74978 4.09526 7.74978 4.09526C7.74978 4.09526 7.63911 3.95173 7.53467 3.95911Z" fill="#EEEEEE"/>
<path d="M6.90977 7.68737C6.83022 7.73675 6.86133 7.76675 6.90977 7.78844C6.95822 7.81014 7.24977 7.8466 7.84044 7.86044C8.44444 7.87475 8.81955 7.80275 8.868 7.77367C8.91644 7.74506 8.92355 7.69429 8.84044 7.67998C8.75688 7.66567 8.34044 7.73767 7.83333 7.73767C7.20844 7.73814 6.94444 7.66567 6.90977 7.68737Z" fill="#BF9300"/>
</g>
<defs>
<clipPath id="clip0_7_5752">
<rect width="16" height="12" rx="6" fill="white"/>
</clipPath>
</defs>
</svg>
