<svg width="23" height="22" viewBox="0 0 23 22" fill="none" xmlns="http://www.w3.org/2000/svg">
<path d="M11.5 20.1668C16.5626 20.1668 20.6667 16.0628 20.6667 11.0002C20.6667 5.93755 16.5626 1.8335 11.5 1.8335C6.43739 1.8335 2.33334 5.93755 2.33334 11.0002C2.33334 16.0628 6.43739 20.1668 11.5 20.1668Z" stroke="#FAFAFA" stroke-width="1.5" stroke-linecap="round" stroke-linejoin="round"/>
<path d="M7.83334 2.75H8.75C6.9625 8.10333 6.9625 13.8967 8.75 19.25H7.83334" stroke="#FAFAFA" stroke-width="1.5" stroke-linecap="round" stroke-linejoin="round"/>
<path d="M14.25 2.75C16.0375 8.10333 16.0375 13.8967 14.25 19.25" stroke="#FAFAFA" stroke-width="1.5" stroke-linecap="round" stroke-linejoin="round"/>
<path d="M3.25 14.6667V13.75C8.60333 15.5375 14.3967 15.5375 19.75 13.75V14.6667" stroke="#FAFAFA" stroke-width="1.5" stroke-linecap="round" stroke-linejoin="round"/>
<path d="M3.25 8.2498C8.60333 6.4623 14.3967 6.4623 19.75 8.2498" stroke="#FAFAFA" stroke-width="1.5" stroke-linecap="round" stroke-linejoin="round"/>
</svg>
