<svg width="25" height="25" viewBox="0 0 25 25" fill="none" xmlns="http://www.w3.org/2000/svg">
<path d="M7.33334 20.25H9.27084V17.6667H11.8542V15.7292H9.27084V13.1458H7.33334V15.7292H4.75V17.6667H7.33334V20.25ZM13.7917 19.2813H20.25V17.3438H13.7917V19.2813ZM13.7917 16.0521H20.25V14.1146H13.7917V16.0521ZM15.2125 11.1438L17.0208 9.33542L18.8292 11.1438L20.1854 9.7875L18.3771 7.91459L20.1854 6.10625L18.8292 4.75L17.0208 6.55834L15.2125 4.75L13.8563 6.10625L15.6646 7.91459L13.8563 9.7875L15.2125 11.1438ZM5.07292 8.88334H11.5313V6.94584H5.07292V8.88334ZM3.45834 24.125C2.74792 24.125 2.13954 23.8718 1.63321 23.3655C1.12688 22.8592 0.874141 22.2512 0.875002 21.5417V3.45834C0.875002 2.74792 1.12817 2.13954 1.6345 1.63321C2.14084 1.12688 2.74878 0.874141 3.45834 0.875002H21.5417C22.2521 0.875002 22.8605 1.12817 23.3668 1.6345C23.8731 2.14084 24.1259 2.74878 24.125 3.45834V21.5417C24.125 22.2521 23.8718 22.8605 23.3655 23.3668C22.8592 23.8731 22.2512 24.1259 21.5417 24.125H3.45834Z" fill="url(#paint0_linear_18_1602)"/>
<defs>
<linearGradient id="paint0_linear_18_1602" x1="0.875" y1="0.767361" x2="15.0406" y2="28.6351" gradientUnits="userSpaceOnUse">
<stop stop-color="#FFC907"/>
<stop offset="1" stop-color="#B5C327"/>
</linearGradient>
</defs>
</svg>
