<svg width="21" height="20" viewBox="0 0 21 20" fill="none" xmlns="http://www.w3.org/2000/svg">
<path d="M19.0603 8.36792H18.3562V8.33334H10.4892V11.6667H15.4293C14.7086 13.6071 12.772 15 10.4892 15C7.59289 15 5.2446 12.7613 5.2446 10C5.2446 7.23876 7.59289 5.00001 10.4892 5.00001C11.8262 5.00001 13.0425 5.48084 13.9686 6.26626L16.4411 3.90917C14.8799 2.52209 12.7916 1.66667 10.4892 1.66667C5.66199 1.66667 1.74817 5.39792 1.74817 10C1.74817 14.6021 5.66199 18.3333 10.4892 18.3333C15.3165 18.3333 19.2303 14.6021 19.2303 10C19.2303 9.44126 19.17 8.89584 19.0603 8.36792Z" fill="#FFC721"/>
<path d="M2.75598 6.12125L5.62786 8.12917C6.40494 6.29501 8.2869 5.00001 10.4892 5.00001C11.8262 5.00001 13.0425 5.48084 13.9686 6.26625L16.441 3.90917C14.8799 2.52209 12.7916 1.66667 10.4892 1.66667C7.13177 1.66667 4.22011 3.47376 2.75598 6.12125Z" fill="#FF4F1A"/>
<path d="M10.4893 18.3333C12.7471 18.3333 14.7986 17.5096 16.3497 16.17L13.6444 13.9875C12.7373 14.6452 11.6289 15.0009 10.4893 15C8.21571 15 6.28524 13.6179 5.55799 11.6892L2.70752 13.7829C4.15417 16.4817 7.09204 18.3333 10.4893 18.3333Z" fill="#5CB85F"/>
<path d="M19.0603 8.36792H18.3562V8.33334H10.4893V11.6667H15.4293C15.0845 12.5902 14.4635 13.3972 13.643 13.9879L13.6444 13.9871L16.3497 16.1696C16.1583 16.3354 19.2303 14.1667 19.2303 10C19.2303 9.44125 19.17 8.89584 19.0603 8.36792Z" fill="#2082E4"/>
</svg>
