<svg width="20" height="21" viewBox="0 0 20 21" fill="none" xmlns="http://www.w3.org/2000/svg">
<path d="M5.66667 16.8582H7.29167V14.6915H9.45834V13.0665H7.29167V10.8998H5.66667V13.0665H3.5V14.6915H5.66667V16.8582ZM11.0833 16.0457H16.5V14.4207H11.0833V16.0457ZM11.0833 13.3373H16.5V11.7123H11.0833V13.3373ZM12.275 9.22066L13.7917 7.70399L15.3083 9.22066L16.4458 8.08316L14.9292 6.51232L16.4458 4.99566L15.3083 3.85816L13.7917 5.37482L12.275 3.85816L11.1375 4.99566L12.6542 6.51232L11.1375 8.08316L12.275 9.22066ZM3.77084 7.32482H9.1875V5.69982H3.77084V7.32482ZM2.41667 20.1082C1.82084 20.1082 1.31059 19.8958 0.885918 19.4712C0.461252 19.0465 0.24928 18.5366 0.250002 17.9415V2.77482C0.250002 2.17899 0.462335 1.66874 0.887002 1.24407C1.31167 0.819406 1.82156 0.607434 2.41667 0.608156H17.5833C18.1792 0.608156 18.6894 0.82049 19.1141 1.24516C19.5388 1.66982 19.7507 2.17971 19.75 2.77482V17.9415C19.75 18.5373 19.5377 19.0476 19.113 19.4722C18.6883 19.8969 18.1784 20.1089 17.5833 20.1082H2.41667Z" fill="#3862E0"/>
</svg>
