<svg width="23" height="22" viewBox="0 0 23 22" fill="none" xmlns="http://www.w3.org/2000/svg">
<path d="M11.5 5.90332V8.95582" stroke="#FAFAFA" stroke-width="1.5" stroke-miterlimit="10" stroke-linecap="round"/>
<path d="M11.5183 1.8335C8.145 1.8335 5.41333 4.56516 5.41333 7.9385V9.8635C5.41333 10.4868 5.15666 11.4218 4.83583 11.9535L3.67166 13.8968C2.95666 15.0977 3.45166 16.436 4.77166 16.876C9.15333 18.3335 13.8925 18.3335 18.2742 16.876C19.5117 16.4635 20.0433 15.0152 19.3742 13.8968L18.21 11.9535C17.8892 11.4218 17.6325 10.4777 17.6325 9.8635V7.9385C17.6233 4.5835 14.8733 1.8335 11.5183 1.8335Z" stroke="#FAFAFA" stroke-width="1.5" stroke-miterlimit="10" stroke-linecap="round"/>
<path d="M14.5525 17.2515C14.5525 18.929 13.1775 20.304 11.5 20.304C10.6658 20.304 9.89584 19.9556 9.34584 19.4056C8.79584 18.8556 8.4475 18.0856 8.4475 17.2515" stroke="#FAFAFA" stroke-width="1.5" stroke-miterlimit="10"/>
</svg>
