<svg width="22" height="22" viewBox="0 0 22 22" fill="none" xmlns="http://www.w3.org/2000/svg">
<path fill-rule="evenodd" clip-rule="evenodd" d="M10.8575 19.8568C7.47331 19.8568 4.58331 19.3301 4.58331 17.2211C4.58331 15.112 7.45498 13.1651 10.8575 13.1651C14.2416 13.1651 17.1316 15.0932 17.1316 17.2022C17.1316 19.3104 14.26 19.8568 10.8575 19.8568Z" stroke="white" stroke-opacity="0.7" stroke-width="1.5" stroke-linecap="round" stroke-linejoin="round"/>
<path fill-rule="evenodd" clip-rule="evenodd" d="M10.8509 10.2425C13.0717 10.2425 14.8717 8.44251 14.8717 6.22168C14.8717 4.00085 13.0717 2.20001 10.8509 2.20001C8.63002 2.20001 6.82919 4.00085 6.82919 6.22168C6.82169 8.43501 8.60919 10.235 10.8225 10.2425C10.8325 10.2425 10.8417 10.2425 10.8509 10.2425Z" stroke="white" stroke-opacity="0.7" stroke-width="1.5" stroke-linecap="round" stroke-linejoin="round"/>
</svg>
