<svg width="23" height="22" viewBox="0 0 23 22" fill="none" xmlns="http://www.w3.org/2000/svg">
<path d="M11.5 13.75C13.0188 13.75 14.25 12.5188 14.25 11C14.25 9.48122 13.0188 8.25 11.5 8.25C9.98122 8.25 8.75 9.48122 8.75 11C8.75 12.5188 9.98122 13.75 11.5 13.75Z" stroke="#FAFAFA" stroke-width="1.5" stroke-miterlimit="10" stroke-linecap="round" stroke-linejoin="round"/>
<path d="M2.33337 11.8066V10.1933C2.33337 9.23998 3.11254 8.45165 4.07504 8.45165C5.73421 8.45165 6.41254 7.27832 5.57837 5.83915C5.10171 5.01415 5.38587 3.94165 6.22004 3.46498L7.80587 2.55748C8.53004 2.12665 9.46504 2.38332 9.89587 3.10748L9.99671 3.28165C10.8217 4.72082 12.1784 4.72082 13.0125 3.28165L13.1134 3.10748C13.5442 2.38332 14.4792 2.12665 15.2034 2.55748L16.7892 3.46498C17.6234 3.94165 17.9075 5.01415 17.4309 5.83915C16.5967 7.27832 17.275 8.45165 18.9342 8.45165C19.8875 8.45165 20.6759 9.23082 20.6759 10.1933V11.8066C20.6759 12.76 19.8967 13.5483 18.9342 13.5483C17.275 13.5483 16.5967 14.7216 17.4309 16.1608C17.9075 16.995 17.6234 18.0583 16.7892 18.535L15.2034 19.4425C14.4792 19.8733 13.5442 19.6166 13.1134 18.8925L13.0125 18.7183C12.1875 17.2791 10.8309 17.2791 9.99671 18.7183L9.89587 18.8925C9.46504 19.6166 8.53004 19.8733 7.80587 19.4425L6.22004 18.535C5.38587 18.0583 5.10171 16.9858 5.57837 16.1608C6.41254 14.7216 5.73421 13.5483 4.07504 13.5483C3.11254 13.5483 2.33337 12.76 2.33337 11.8066Z" stroke="#FAFAFA" stroke-width="1.5" stroke-miterlimit="10" stroke-linecap="round" stroke-linejoin="round"/>
</svg>
