<svg width="12" height="13" viewBox="0 0 12 13" fill="none" xmlns="http://www.w3.org/2000/svg">
<path fill-rule="evenodd" clip-rule="evenodd" d="M7.42633 2.36537C7.42638 1.8735 7.59865 1.39717 7.91324 1.01905C8.22783 0.640939 8.66489 0.38491 9.14855 0.295406C9.63221 0.205902 10.1319 0.288573 10.561 0.529069C10.9901 0.769566 11.3214 1.15271 11.4975 1.61199C11.6735 2.07127 11.6832 2.57771 11.5249 3.04339C11.3665 3.50907 11.0501 3.90461 10.6305 4.16135C10.211 4.41808 9.71476 4.51981 9.22803 4.44887C8.7413 4.37794 8.29477 4.13882 7.96594 3.77302L6.2059 4.73304L4.23662 5.85825C4.51194 6.34283 4.58414 6.91672 4.43744 7.4544L7.96594 9.37898C8.31115 8.99543 8.78521 8.75203 9.29807 8.69499C9.81093 8.63796 10.3269 8.77126 10.7479 9.06959C11.169 9.36793 11.4658 9.8105 11.582 10.3133C11.6982 10.816 11.6257 11.344 11.3783 11.7968C11.1309 12.2497 10.7258 12.5959 10.2399 12.7697C9.75406 12.9435 9.22127 12.9328 8.74276 12.7397C8.26425 12.5465 7.87333 12.1844 7.64426 11.722C7.41519 11.2596 7.36392 10.7292 7.50018 10.2315L3.97168 8.30754C3.70276 8.60664 3.3538 8.82244 2.96608 8.92943C2.57835 9.03641 2.1681 9.03009 1.78386 8.91121C1.39961 8.79233 1.05746 8.56588 0.797892 8.25864C0.538321 7.9514 0.372191 7.57623 0.319161 7.17753C0.266131 6.77883 0.32842 6.37328 0.498658 6.00887C0.668895 5.64446 0.939956 5.33645 1.27977 5.12127C1.61958 4.90609 2.01392 4.79275 2.41613 4.79466C2.81833 4.79658 3.21157 4.91367 3.54932 5.13208L5.73237 3.88444L7.50018 2.91988C7.45104 2.73915 7.4262 2.55267 7.42633 2.36537ZM9.53165 1.23174C9.38278 1.23174 9.23536 1.26107 9.09782 1.31804C8.96029 1.37501 8.83532 1.45851 8.73005 1.56378C8.62478 1.66904 8.54128 1.79401 8.48431 1.93155C8.42734 2.06909 8.39802 2.2165 8.39802 2.36537C8.39802 2.51424 8.42734 2.66166 8.48431 2.7992C8.54128 2.93673 8.62478 3.0617 8.73005 3.16697C8.83532 3.27224 8.96029 3.35574 9.09782 3.41271C9.23536 3.46968 9.38278 3.499 9.53165 3.499C9.8323 3.499 10.1206 3.37957 10.3332 3.16697C10.5458 2.95437 10.6653 2.66603 10.6653 2.36537C10.6653 2.06472 10.5458 1.77637 10.3332 1.56378C10.1206 1.35118 9.8323 1.23174 9.53165 1.23174ZM2.40597 5.76626C2.10532 5.76626 1.81697 5.8857 1.60438 6.0983C1.39178 6.31089 1.27234 6.59924 1.27234 6.89989C1.27234 7.20055 1.39178 7.48889 1.60438 7.70149C1.81697 7.91409 2.10532 8.03352 2.40597 8.03352C2.70663 8.03352 2.99497 7.91409 3.20757 7.70149C3.42017 7.48889 3.5396 7.20055 3.5396 6.89989C3.5396 6.59924 3.42017 6.31089 3.20757 6.0983C2.99497 5.8857 2.70663 5.76626 2.40597 5.76626ZM8.39802 10.7866C8.39802 10.486 8.51745 10.1976 8.73005 9.98503C8.94265 9.77243 9.23099 9.65299 9.53165 9.65299C9.8323 9.65299 10.1206 9.77243 10.3332 9.98503C10.5458 10.1976 10.6653 10.486 10.6653 10.7866C10.6653 11.0873 10.5458 11.3756 10.3332 11.5882C10.1206 11.8008 9.8323 11.9203 9.53165 11.9203C9.23099 11.9203 8.94265 11.8008 8.73005 11.5882C8.51745 11.3756 8.39802 11.0873 8.39802 10.7866Z" fill="#F1F0FA"/>
</svg>
