<svg width="23" height="22" viewBox="0 0 23 22" fill="none" xmlns="http://www.w3.org/2000/svg">
<path d="M16.0466 5.65576C17.88 6.92993 19.145 8.95576 19.4016 11.2933" stroke="#FAFAFA" stroke-width="1.5" stroke-linecap="round" stroke-linejoin="round"/>
<path d="M3.69922 11.3392C3.93755 9.01083 5.18422 6.98499 6.99922 5.70166" stroke="#FAFAFA" stroke-width="1.5" stroke-linecap="round" stroke-linejoin="round"/>
<path d="M8.00745 19.1948C9.07078 19.7357 10.2808 20.0382 11.5549 20.0382C12.7833 20.0382 13.9383 19.7632 14.9741 19.259" stroke="#FAFAFA" stroke-width="1.5" stroke-linecap="round" stroke-linejoin="round"/>
<path d="M11.555 7.05809C12.9625 7.05809 14.1034 5.91716 14.1034 4.50976C14.1034 3.10235 12.9625 1.96143 11.555 1.96143C10.1476 1.96143 9.00671 3.10235 9.00671 4.50976C9.00671 5.91716 10.1476 7.05809 11.555 7.05809Z" stroke="#FAFAFA" stroke-width="1.5" stroke-linecap="round" stroke-linejoin="round"/>
<path d="M4.92748 18.2602C6.33489 18.2602 7.47582 17.1193 7.47582 15.7119C7.47582 14.3045 6.33489 13.1636 4.92748 13.1636C3.52008 13.1636 2.37915 14.3045 2.37915 15.7119C2.37915 17.1193 3.52008 18.2602 4.92748 18.2602Z" stroke="#FAFAFA" stroke-width="1.5" stroke-linecap="round" stroke-linejoin="round"/>
<path d="M18.0725 18.2602C19.4799 18.2602 20.6208 17.1193 20.6208 15.7119C20.6208 14.3045 19.4799 13.1636 18.0725 13.1636C16.6651 13.1636 15.5242 14.3045 15.5242 15.7119C15.5242 17.1193 16.6651 18.2602 18.0725 18.2602Z" stroke="#FAFAFA" stroke-width="1.5" stroke-linecap="round" stroke-linejoin="round"/>
</svg>
