<svg width="23" height="22" viewBox="0 0 23 22" fill="none" xmlns="http://www.w3.org/2000/svg">
<path d="M19.75 5.48177C16.6975 5.17927 13.6267 5.02344 10.565 5.02344C8.75 5.02344 6.935 5.1151 5.12 5.29844L3.25 5.48177" stroke="#FF2A2A" stroke-width="1.5" stroke-linecap="round" stroke-linejoin="round"/>
<path d="M8.29167 4.556L8.49333 3.35516C8.64 2.48433 8.75 1.8335 10.2992 1.8335H12.7008C14.25 1.8335 14.3692 2.521 14.5067 3.36433L14.7083 4.556" stroke="#FF2A2A" stroke-width="1.5" stroke-linecap="round" stroke-linejoin="round"/>
<path d="M17.7792 8.37842L17.1833 17.6093C17.0825 19.0484 17 20.1668 14.4425 20.1668H8.5575C6 20.1668 5.9175 19.0484 5.81667 17.6093L5.22083 8.37842" stroke="#FF2A2A" stroke-width="1.5" stroke-linecap="round" stroke-linejoin="round"/>
<path d="M9.96917 15.125H13.0217" stroke="#FF2A2A" stroke-width="1.5" stroke-linecap="round" stroke-linejoin="round"/>
<path d="M9.20833 11.4585H13.7917" stroke="#FF2A2A" stroke-width="1.5" stroke-linecap="round" stroke-linejoin="round"/>
</svg>
