<svg width="22" height="22" viewBox="0 0 22 22" fill="none" xmlns="http://www.w3.org/2000/svg">
<path fill-rule="evenodd" clip-rule="evenodd" d="M10.8575 19.8567C7.47331 19.8567 4.58331 19.3301 4.58331 17.221C4.58331 15.112 7.45498 13.165 10.8575 13.165C14.2416 13.165 17.1316 15.0931 17.1316 17.2022C17.1316 19.3104 14.26 19.8567 10.8575 19.8567Z" stroke="#FEDC00" stroke-width="1.5" stroke-linecap="round" stroke-linejoin="round"/>
<path fill-rule="evenodd" clip-rule="evenodd" d="M10.8509 10.2427C13.0717 10.2427 14.8717 8.4427 14.8717 6.22186C14.8717 4.00103 13.0717 2.2002 10.8509 2.2002C8.63002 2.2002 6.82919 4.00103 6.82919 6.22186C6.82169 8.4352 8.60919 10.2352 10.8225 10.2427C10.8325 10.2427 10.8417 10.2427 10.8509 10.2427Z" stroke="#FEDC00" stroke-width="1.5" stroke-linecap="round" stroke-linejoin="round"/>
</svg>
